<svg width="1120" height="420" viewBox="0 0 1120 420" fill="none" xmlns="http://www.w3.org/2000/svg">
  <rect width="1120" height="420" rx="24" fill="#F7F9FC"/>
  <text x="64" y="72" fill="#14213D" font-family="Arial, Helvetica, sans-serif" font-size="28" font-weight="700">Policy Lifecycle</text>
  <text x="64" y="102" fill="#5E6B82" font-family="Arial, Helvetica, sans-serif" font-size="15">From draft creation to activation, document generation and client delivery</text>

  <rect x="70" y="170" width="180" height="92" rx="14" fill="white" stroke="#DCE4F2"/>
  <text x="106" y="207" fill="#14213D" font-family="Arial, Helvetica, sans-serif" font-size="18" font-weight="700">Draft Policy</text>
  <text x="106" y="232" fill="#5E6B82" font-family="Arial, Helvetica, sans-serif" font-size="13">Client, building, broker</text>

  <rect x="322" y="170" width="210" height="92" rx="14" fill="#EEF4FF" stroke="#BFD2F3"/>
  <text x="358" y="207" fill="#1E3A72" font-family="Arial, Helvetica, sans-serif" font-size="18" font-weight="700">Premium Engine</text>
  <text x="358" y="232" fill="#51627B" font-family="Arial, Helvetica, sans-serif" font-size="13">Fees and risk factors</text>

  <rect x="604" y="170" width="180" height="92" rx="14" fill="#F3FBF8" stroke="#B7E3D4"/>
  <text x="648" y="207" fill="#12664F" font-family="Arial, Helvetica, sans-serif" font-size="18" font-weight="700">Activation</text>
  <text x="648" y="232" fill="#476C63" font-family="Arial, Helvetica, sans-serif" font-size="13">Policy becomes active</text>

  <rect x="856" y="132" width="196" height="74" rx="14" fill="#FFF7E8" stroke="#F0D29C"/>
  <text x="895" y="165" fill="#795000" font-family="Arial, Helvetica, sans-serif" font-size="17" font-weight="700">PDF Document</text>
  <text x="895" y="188" fill="#7A6541" font-family="Arial, Helvetica, sans-serif" font-size="13">Structured policy file</text>

  <rect x="856" y="246" width="196" height="74" rx="14" fill="#F8F1FF" stroke="#D7BFF4"/>
  <text x="897" y="279" fill="#56328A" font-family="Arial, Helvetica, sans-serif" font-size="17" font-weight="700">Client Email</text>
  <text x="897" y="302" fill="#66527C" font-family="Arial, Helvetica, sans-serif" font-size="13">Attached PDF via SMTP</text>

  <path d="M250 216 H322" stroke="#8CA2C5" stroke-width="3"/>
  <path d="M310 206 L322 216 L310 226" stroke="#8CA2C5" stroke-width="3" stroke-linecap="round" stroke-linejoin="round"/>
  <path d="M532 216 H604" stroke="#8CA2C5" stroke-width="3"/>
  <path d="M592 206 L604 216 L592 226" stroke="#8CA2C5" stroke-width="3" stroke-linecap="round" stroke-linejoin="round"/>
  <path d="M784 196 C815 186 825 169 856 169" stroke="#8CA2C5" stroke-width="3" fill="none"/>
  <path d="M843 162 L856 169 L845 179" stroke="#8CA2C5" stroke-width="3" stroke-linecap="round" stroke-linejoin="round"/>
  <path d="M784 236 C815 246 825 283 856 283" stroke="#8CA2C5" stroke-width="3" fill="none"/>
  <path d="M843 275 L856 283 L843 292" stroke="#8CA2C5" stroke-width="3" stroke-linecap="round" stroke-linejoin="round"/>

  <rect x="70" y="322" width="714" height="48" rx="12" fill="white" stroke="#DCE4F2"/>
  <text x="98" y="352" fill="#5E6B82" font-family="Arial, Helvetica, sans-serif" font-size="14">Cancellation is handled as a separate status transition for active policies.</text>
</svg>
