<svg width="1120" height="520" viewBox="0 0 1120 520" fill="none" xmlns="http://www.w3.org/2000/svg">
  <rect width="1120" height="520" rx="24" fill="#F7F9FC"/>
  <rect x="34" y="32" width="1052" height="456" rx="18" fill="white" stroke="#DCE4F2"/>
  <text x="72" y="82" fill="#14213D" font-family="Arial, Helvetica, sans-serif" font-size="28" font-weight="700">Insurance Management Platform</text>
  <text x="72" y="112" fill="#5E6B82" font-family="Arial, Helvetica, sans-serif" font-size="15">High-level system overview</text>

  <rect x="74" y="178" width="210" height="112" rx="14" fill="#EEF4FF" stroke="#BFD2F3"/>
  <text x="104" y="218" fill="#1E3A72" font-family="Arial, Helvetica, sans-serif" font-size="20" font-weight="700">React Frontend</text>
  <text x="104" y="247" fill="#51627B" font-family="Arial, Helvetica, sans-serif" font-size="14">Admin and broker UI</text>
  <text x="104" y="270" fill="#51627B" font-family="Arial, Helvetica, sans-serif" font-size="14">Dashboards, forms, reports</text>

  <rect x="455" y="158" width="242" height="152" rx="16" fill="#243B6B"/>
  <text x="497" y="205" fill="white" font-family="Arial, Helvetica, sans-serif" font-size="22" font-weight="700">Spring Boot API</text>
  <text x="497" y="237" fill="#D9E3FB" font-family="Arial, Helvetica, sans-serif" font-size="14">JWT authentication</text>
  <text x="497" y="260" fill="#D9E3FB" font-family="Arial, Helvetica, sans-serif" font-size="14">Policy business logic</text>
  <text x="497" y="283" fill="#D9E3FB" font-family="Arial, Helvetica, sans-serif" font-size="14">Global error handling</text>

  <rect x="832" y="88" width="200" height="88" rx="14" fill="#F3FBF8" stroke="#B7E3D4"/>
  <text x="862" y="124" fill="#12664F" font-family="Arial, Helvetica, sans-serif" font-size="18" font-weight="700">PostgreSQL</text>
  <text x="862" y="150" fill="#476C63" font-family="Arial, Helvetica, sans-serif" font-size="14">Operational data</text>

  <rect x="832" y="216" width="200" height="88" rx="14" fill="#FFF7E8" stroke="#F0D29C"/>
  <text x="862" y="252" fill="#795000" font-family="Arial, Helvetica, sans-serif" font-size="18" font-weight="700">Python ML</text>
  <text x="862" y="278" fill="#7A6541" font-family="Arial, Helvetica, sans-serif" font-size="14">K-Prototypes clusters</text>

  <rect x="832" y="344" width="200" height="88" rx="14" fill="#F8F1FF" stroke="#D7BFF4"/>
  <text x="862" y="380" fill="#56328A" font-family="Arial, Helvetica, sans-serif" font-size="18" font-weight="700">PDF and Email</text>
  <text x="862" y="406" fill="#66527C" font-family="Arial, Helvetica, sans-serif" font-size="14">Policy delivery via SMTP</text>

  <path d="M284 234 H455" stroke="#8CA2C5" stroke-width="3"/>
  <path d="M443 224 L455 234 L443 244" stroke="#8CA2C5" stroke-width="3" stroke-linecap="round" stroke-linejoin="round"/>
  <text x="330" y="218" fill="#6B7790" font-family="Arial, Helvetica, sans-serif" font-size="13">REST API</text>

  <path d="M697 214 C756 214 770 132 832 132" stroke="#8CA2C5" stroke-width="3" fill="none"/>
  <path d="M819 126 L832 132 L822 143" stroke="#8CA2C5" stroke-width="3" stroke-linecap="round" stroke-linejoin="round"/>

  <path d="M697 248 H832" stroke="#8CA2C5" stroke-width="3"/>
  <path d="M820 238 L832 248 L820 258" stroke="#8CA2C5" stroke-width="3" stroke-linecap="round" stroke-linejoin="round"/>

  <path d="M697 282 C756 282 770 388 832 388" stroke="#8CA2C5" stroke-width="3" fill="none"/>
  <path d="M821 376 L832 388 L818 395" stroke="#8CA2C5" stroke-width="3" stroke-linecap="round" stroke-linejoin="round"/>

  <rect x="74" y="360" width="622" height="64" rx="12" fill="#F8FAFE" stroke="#DCE4F2"/>
  <text x="104" y="389" fill="#14213D" font-family="Arial, Helvetica, sans-serif" font-size="16" font-weight="700">Core modules</text>
  <text x="104" y="414" fill="#5E6B82" font-family="Arial, Helvetica, sans-serif" font-size="14">Clients, buildings, brokers, policies, premiums, reports, currencies and risk configurations</text>
</svg>
